<svg viewBox="0 0 197 197" fill="none" xmlns="http://www.w3.org/2000/svg">
<path fill-rule="evenodd" clip-rule="evenodd" d="M65.6667 57.4583C65.6667 48.7504 69.1259 40.3991 75.2833 34.2417C81.4408 28.0842 89.7921 24.625 98.5 24.625C107.208 24.625 115.559 28.0842 121.717 34.2417C127.874 40.3991 131.333 48.7504 131.333 57.4583C131.333 66.1663 127.874 74.5176 121.717 80.675C115.559 86.8325 107.208 90.2917 98.5 90.2917C89.7921 90.2917 81.4408 86.8325 75.2833 80.675C69.1259 74.5176 65.6667 66.1663 65.6667 57.4583ZM65.6667 106.708C54.7817 106.708 44.3426 111.032 36.6458 118.729C28.949 126.426 24.625 136.865 24.625 147.75C24.625 154.281 27.2194 160.544 31.8375 165.163C36.4556 169.781 42.719 172.375 49.25 172.375H147.75C154.281 172.375 160.544 169.781 165.163 165.163C169.781 160.544 172.375 154.281 172.375 147.75C172.375 136.865 168.051 126.426 160.354 118.729C152.657 111.032 142.218 106.708 131.333 106.708H65.6667Z" fill="black"/>
</svg>
