<svg viewBox="0 0 30 30" fill="none" xmlns="http://www.w3.org/2000/svg">
<g clip-path="url(#clip0_430_56)">
<path fill-rule="evenodd" clip-rule="evenodd" d="M14.9997 16.7672L22.0709 23.8384C22.3067 24.0661 22.6224 24.1921 22.9502 24.1893C23.2779 24.1864 23.5914 24.055 23.8232 23.8232C24.0549 23.5915 24.1864 23.2779 24.1892 22.9502C24.1921 22.6225 24.0661 22.3067 23.8384 22.0709L16.7672 14.9997L23.8384 7.92845C24.0661 7.6927 24.1921 7.37694 24.1892 7.0492C24.1864 6.72145 24.0549 6.40794 23.8232 6.17618C23.5914 5.94442 23.2779 5.81295 22.9502 5.81011C22.6224 5.80726 22.3067 5.93325 22.0709 6.16095L14.9997 13.2322L7.92841 6.16095C7.69159 5.93888 7.37767 5.81766 7.05307 5.82293C6.72847 5.8282 6.41865 5.95955 6.18917 6.18919C5.95969 6.41883 5.82856 6.72874 5.82352 7.05335C5.81847 7.37796 5.93992 7.69179 6.16216 7.92845L13.2322 14.9997L6.16091 22.0709C6.04152 22.1863 5.94629 22.3242 5.88078 22.4767C5.81527 22.6292 5.78079 22.7932 5.77934 22.9592C5.7779 23.1252 5.80953 23.2898 5.87238 23.4434C5.93523 23.597 6.02805 23.7366 6.14541 23.8539C6.26278 23.9713 6.40234 24.0641 6.55596 24.127C6.70958 24.1898 6.87418 24.2215 7.04016 24.22C7.20613 24.2186 7.37016 24.1841 7.52266 24.1186C7.67517 24.0531 7.8131 23.9578 7.92841 23.8384L14.9997 16.7672Z" fill="#A3A3A3"/>
</g>
<defs>
<clipPath id="clip0_430_56">
<rect width="30" height="30" fill="white"/>
</clipPath>
</defs>
</svg>
