<svg viewBox="0 0 30 30" fill="none" xmlns="http://www.w3.org/2000/svg">
<g clip-path="url(#clip0_333_101)">
<path fill-rule="evenodd" clip-rule="evenodd" d="M18 6.00098C18.1313 6.00098 18.2614 6.02684 18.3827 6.0771C18.504 6.12735 18.6142 6.20101 18.7071 6.29387C18.8 6.38673 18.8736 6.49697 18.9239 6.61829C18.9741 6.73962 19 6.86965 19 7.00098C19 7.1323 18.9741 7.26233 18.9239 7.38366C18.8736 7.50499 18.8 7.61523 18.7071 7.70808C18.6142 7.80094 18.504 7.8746 18.3827 7.92486C18.2614 7.97511 18.1313 8.00098 18 8.00098H9V21.001C9 21.2662 9.10536 21.5205 9.29289 21.7081C9.48043 21.8956 9.73478 22.001 10 22.001H18C18.2652 22.001 18.5196 22.1063 18.7071 22.2939C18.8946 22.4814 19 22.7358 19 23.001C19 23.2662 18.8946 23.5205 18.7071 23.7081C18.5196 23.8956 18.2652 24.001 18 24.001H10C9.20435 24.001 8.44129 23.6849 7.87868 23.1223C7.31607 22.5597 7 21.7966 7 21.001V7.00098C7 6.73576 7.10536 6.48141 7.29289 6.29387C7.48043 6.10633 7.73478 6.00098 8 6.00098H18ZM19.707 11.294C19.5672 11.1542 19.3891 11.059 19.1953 11.0204C19.0014 10.9818 18.8005 11.0016 18.6178 11.0771C18.4351 11.1527 18.279 11.2806 18.169 11.4449C18.0591 11.6092 18.0002 11.8023 18 12V14H12C11.7348 14 11.4804 14.1053 11.2929 14.2929C11.1054 14.4804 11 14.7348 11 15C11 15.2652 11.1054 15.5195 11.2929 15.7071C11.4804 15.8946 11.7348 16 12 16H18V18C18 18.1977 18.0587 18.391 18.1686 18.5554C18.2785 18.7198 18.4346 18.848 18.6173 18.9237C18.8 18.9993 19.0011 19.0191 19.195 18.9806C19.389 18.942 19.5671 18.8468 19.707 18.707L22.707 15.707C22.8945 15.5194 22.9998 15.2651 22.9998 15C22.9998 14.7348 22.8945 14.4805 22.707 14.293L19.707 11.294Z" fill="black"/>
</g>
<defs>
<clipPath id="clip0_333_101">
<rect width="24" height="24" fill="white" transform="translate(3 3)"/>
</clipPath>
</defs>
</svg>
