<svg viewBox="0 0 30 30" fill="none" xmlns="http://www.w3.org/2000/svg">
<path d="M14.9996 11C16.0605 11 17.0779 11.4214 17.8281 12.1716C18.5782 12.9217 18.9996 13.9391 18.9996 15C18.9996 16.0609 18.5782 17.0783 17.8281 17.8284C17.0779 18.5786 16.0605 19 14.9996 19C13.9388 19 12.9214 18.5786 12.1712 17.8284C11.4211 17.0783 10.9996 16.0609 10.9996 15C10.9996 13.9391 11.4211 12.9217 12.1712 12.1716C12.9214 11.4214 13.9388 11 14.9996 11ZM14.9996 13C14.4692 13 13.9605 13.2107 13.5854 13.5858C13.2104 13.9609 12.9996 14.4696 12.9996 15C12.9996 15.5304 13.2104 16.0391 13.5854 16.4142C13.9605 16.7893 14.4692 17 14.9996 17C15.5301 17 16.0388 16.7893 16.4139 16.4142C16.7889 16.0391 16.9996 15.5304 16.9996 15C16.9996 14.4696 16.7889 13.9609 16.4139 13.5858C16.0388 13.2107 15.5301 13 14.9996 13ZM12.9996 25C12.7496 25 12.5396 24.82 12.4996 24.58L12.1296 21.93C11.4996 21.68 10.9596 21.34 10.4396 20.94L7.94965 21.95C7.72965 22.03 7.45965 21.95 7.33965 21.73L5.33965 18.27C5.27844 18.167 5.25687 18.0452 5.27895 17.9274C5.30104 17.8096 5.36527 17.7039 5.45965 17.63L7.56965 15.97L7.49965 15L7.56965 14L5.45965 12.37C5.36527 12.2961 5.30104 12.1904 5.27895 12.0726C5.25687 11.9548 5.27844 11.833 5.33965 11.73L7.33965 8.27C7.45965 8.05 7.72965 7.96 7.94965 8.05L10.4396 9.05C10.9596 8.66 11.4996 8.32 12.1296 8.07L12.4996 5.42C12.5396 5.18 12.7496 5 12.9996 5H16.9996C17.2496 5 17.4596 5.18 17.4996 5.42L17.8696 8.07C18.4996 8.32 19.0396 8.66 19.5596 9.05L22.0496 8.05C22.2696 7.96 22.5396 8.05 22.6596 8.27L24.6596 11.73C24.7896 11.95 24.7297 12.22 24.5396 12.37L22.4296 14L22.4996 15L22.4296 16L24.5396 17.63C24.7297 17.78 24.7896 18.05 24.6596 18.27L22.6596 21.73C22.5396 21.95 22.2696 22.04 22.0496 21.95L19.5596 20.95C19.0396 21.34 18.4996 21.68 17.8696 21.93L17.4996 24.58C17.4596 24.82 17.2496 25 16.9996 25H12.9996ZM14.2496 7L13.8796 9.61C12.6796 9.86 11.6196 10.5 10.8496 11.39L8.43965 10.35L7.68965 11.65L9.79965 13.2C9.39965 14.3667 9.39965 15.6333 9.79965 16.8L7.67965 18.36L8.42965 19.66L10.8596 18.62C11.6296 19.5 12.6796 20.14 13.8696 20.38L14.2396 23H15.7596L16.1296 20.39C17.3196 20.14 18.3696 19.5 19.1396 18.62L21.5696 19.66L22.3196 18.36L20.1996 16.81C20.5996 15.64 20.5996 14.37 20.1996 13.2L22.3096 11.65L21.5596 10.35L19.1496 11.39C18.3639 10.4803 17.298 9.85767 16.1196 9.62L15.7496 7H14.2496Z" fill="black"/>
</svg>
