<svg viewBox="0 0 24 24" fill="none" xmlns="http://www.w3.org/2000/svg">
<g clip-path="url(#clip0_279_61)">
<path d="M13.1998 8.4L14.9278 10.992C15.2998 11.556 16.1398 12 16.8118 12H20.3998V9.6H16.7998L15.0718 7.008C14.6087 6.35883 14.041 5.7911 13.3918 5.328L11.8078 4.272C11.5011 4.0879 11.1518 3.98668 10.7942 3.97827C10.4365 3.96985 10.0828 4.05453 9.76781 4.224L4.7998 7.2V13.2H7.1998V8.4L9.5998 7.2L5.9998 24H8.3998L11.2198 14.82L13.1998 16.8V24H15.5998V14.4L12.3598 11.16L13.1998 8.4ZM14.3998 4.8C15.0363 4.8 15.6468 4.54714 16.0969 4.09706C16.5469 3.64697 16.7998 3.03652 16.7998 2.4C16.7998 1.76348 16.5469 1.15303 16.0969 0.702944C15.6468 0.252856 15.0363 0 14.3998 0C13.7633 0 13.1528 0.252856 12.7027 0.702944C12.2527 1.15303 11.9998 1.76348 11.9998 2.4C11.9998 3.03652 12.2527 3.64697 12.7027 4.09706C13.1528 4.54714 13.7633 4.8 14.3998 4.8Z" fill="white"/>
</g>
<defs>
<clipPath id="clip0_279_61">
<rect width="24" height="24" fill="white"/>
</clipPath>
</defs>
</svg>
