<svg width="1150" height="430" viewBox="0 0 1136 428" fill="none" xmlns="http://www.w3.org/2000/svg">
<g clip-path="url(#clip0_240_34)">
<rect width="1096" height="407" rx="25" fill="url(#paint0_radial_240_34)"/>
<rect width="1096" height="407" rx="25" fill="#89C587"/>
<mask id="mask0_240_34" style="mask-type:alpha" maskUnits="userSpaceOnUse" x="428" y="-210" width="825" height="856">
<path d="M1129.32 118.414L1066.53 82.1621L1119.41 -9.43701L1182.2 26.8153L1171.62 45.1479L1127.16 19.4799L1116.58 37.8125L1146.66 55.1826L1136.08 73.5152L1105.99 56.1451L1095.44 74.4139L1139.9 100.082L1129.32 118.414Z" fill="#0A1200"/>
<path d="M1043.1 -29.0533L1021.93 7.61193L1040.26 18.1963C1042.77 19.6468 1045.41 20.543 1048.16 20.8846C1050.94 21.1836 1053.64 20.9822 1056.26 20.2802C1058.88 19.5783 1061.3 18.3906 1063.52 16.7171C1065.8 15.0256 1067.66 12.9236 1069.11 10.4111C1070.57 7.89863 1071.44 5.25245 1071.74 2.47258C1072.11 -0.32529 1071.94 -3.03406 1071.24 -5.65371C1070.53 -8.27336 1069.35 -10.6909 1067.67 -12.9062C1066.02 -15.1641 1063.94 -17.0184 1061.43 -18.4689L1043.1 -29.0533ZM1000.8 44.2133L982.465 33.6289L1035.35 -57.9702L1072.01 -36.8016C1075.38 -34.8592 1078.36 -32.5436 1080.95 -29.8545C1083.57 -27.208 1085.75 -24.3012 1087.5 -21.1341C1089.31 -17.9849 1090.68 -14.6427 1091.59 -11.1072C1092.57 -7.58974 1093.06 -4.01345 1093.06 -0.378363C1093.1 3.28131 1092.65 6.91134 1091.71 10.5117C1090.81 14.1367 1089.39 17.6313 1087.45 20.9954C1084.55 26.0204 1080.85 30.2154 1076.35 33.5804C1071.88 36.9028 1067.02 39.2659 1061.78 40.6698C1056.54 42.0737 1051.13 42.443 1045.55 41.7777C1040.02 41.1371 1034.74 39.3662 1029.71 36.465L1011.38 25.8807L1000.8 44.2133Z" fill="#0A1200"/>
<path d="M959.037 -77.5865L937.868 -40.9213L956.201 -30.3369C958.713 -28.8864 961.347 -27.9903 964.102 -27.6486C966.882 -27.3496 969.582 -27.551 972.202 -28.253C974.821 -28.9549 977.239 -30.1426 979.454 -31.8161C981.737 -33.5076 983.603 -35.6096 985.054 -38.1221C986.504 -40.6346 987.379 -43.2808 987.678 -46.0606C988.044 -48.8585 987.877 -51.5673 987.175 -54.1869C986.473 -56.8066 985.285 -59.2241 983.612 -61.4394C981.963 -63.6973 979.882 -65.5516 977.369 -67.0022L959.037 -77.5865ZM916.736 -4.31994L898.404 -14.9043L951.289 -106.503L987.954 -85.3348C991.318 -83.3925 994.296 -81.0768 996.889 -78.3877C999.506 -75.7412 1001.69 -72.8344 1003.44 -69.6673C1005.25 -66.5181 1006.62 -63.1759 1007.53 -59.6404C1008.51 -56.1229 1009 -52.5467 1009 -48.9116C1009.04 -45.2519 1008.59 -41.6219 1007.65 -38.0215C1006.75 -34.3965 1005.33 -30.9019 1003.39 -27.5378C1000.49 -22.5128 996.786 -18.3178 992.288 -14.9528C987.815 -11.6304 982.958 -9.26727 977.719 -7.86341C972.48 -6.45954 967.071 -6.09023 961.494 -6.75547C955.958 -7.39613 950.678 -9.16705 945.653 -12.0682L927.321 -22.6525L916.736 -4.31994Z" fill="#0A1200"/>
<path d="M1126.37 123.52L1063.58 87.2673L1010.69 178.866L1073.49 215.119L1084.07 196.786L1039.61 171.118L1050.2 152.786L1080.28 170.156L1090.87 151.823L1060.78 134.453L1071.33 116.184L1115.79 141.852L1126.37 123.52Z" fill="#0A1200"/>
<path d="M955.55 122.585L976.718 85.9198L995.051 96.5041C997.563 97.9547 999.656 99.7876 1001.33 102.003C1002.98 104.261 1004.15 106.7 1004.86 109.319C1005.56 111.939 1005.74 114.626 1005.4 117.382C1005.07 120.204 1004.19 122.872 1002.74 125.384C1001.28 127.897 999.431 129.977 997.173 131.626C994.933 133.342 992.503 134.551 989.883 135.253C987.264 135.955 984.576 136.135 981.821 135.794C979.041 135.495 976.395 134.62 973.882 133.169L955.55 122.585ZM997.85 49.3184L979.518 38.7341L926.633 130.333L963.298 151.502C966.662 153.444 970.157 154.866 973.782 155.766C977.382 156.709 980.991 157.146 984.608 157.077C988.243 157.075 991.819 156.584 995.337 155.606C998.872 154.695 1002.21 153.331 1005.36 151.515C1008.56 149.724 1011.47 147.52 1014.12 144.903C1016.81 142.311 1019.13 139.333 1021.07 135.968C1023.97 130.944 1025.75 125.642 1026.42 120.064C1027.06 114.529 1026.68 109.142 1025.27 103.903C1023.87 98.6634 1021.48 93.7949 1018.12 89.297C1014.8 84.8238 1010.62 81.1365 1005.6 78.2354L987.266 67.651L997.85 49.3184Z" fill="#0A1200"/>
<path d="M871.488 74.0523L892.657 37.3871L910.989 47.9714C913.502 49.422 915.595 51.2549 917.268 53.4703C918.917 55.7282 920.093 58.167 920.795 60.7866C921.497 63.4063 921.677 66.0937 921.335 68.849C921.012 71.6715 920.124 74.339 918.674 76.8514C917.223 79.3639 915.369 81.4446 913.111 83.0935C910.871 84.8096 908.441 86.0186 905.822 86.7206C903.202 87.4225 900.515 87.6026 897.759 87.261C894.979 86.962 892.333 86.0872 889.821 84.6366L871.488 74.0523ZM913.789 0.78572L895.456 -9.79861L842.571 81.8005L879.236 102.969C882.601 104.912 886.095 106.333 889.72 107.233C893.321 108.177 896.929 108.613 900.546 108.544C904.182 108.542 907.758 108.052 911.275 107.073C914.811 106.162 918.153 104.798 921.302 102.983C924.494 101.192 927.413 98.9875 930.059 96.3706C932.749 93.7782 935.064 90.8 937.006 87.4358C939.908 82.4108 941.691 77.1095 942.356 71.5317C942.997 65.9966 942.615 60.6093 941.211 55.37C939.807 50.1307 937.423 45.2621 934.058 40.7643C930.736 36.291 926.562 32.6038 921.537 29.7027L903.204 19.1183L913.789 0.78572Z" fill="#0A1200"/>
<path d="M840.087 7.03545L829.503 25.3681C828.052 27.8805 826.198 29.9612 823.94 31.6101C821.7 33.3262 819.27 34.5352 816.65 35.2372C814.031 35.9391 811.322 36.107 808.524 35.7408C805.744 35.4417 803.098 34.5669 800.586 33.1163C798.073 31.6657 795.971 29.7992 794.28 27.5167C792.606 25.3014 791.418 22.8839 790.716 20.2642C790.015 17.6446 789.825 14.9235 790.149 12.101C790.491 9.34575 791.387 6.71187 792.837 4.19939L803.422 -14.1332L840.087 7.03545ZM879.551 -18.9816L861.219 -29.5659L850.634 -11.2333L813.969 -32.4019L824.553 -50.7346L806.285 -61.282L774.569 -6.34807C771.643 -1.28052 769.86 4.02083 769.219 9.55599C768.554 15.1337 768.902 20.53 770.263 25.7447C771.667 30.984 774.03 35.8403 777.352 40.3135C780.717 44.8114 784.934 48.5232 790.001 51.4489C795.069 54.3747 800.37 56.1579 805.905 56.7985C811.483 57.4638 816.892 57.0945 822.131 55.6906C827.37 54.2867 832.239 51.9023 836.737 48.5373C841.21 45.2149 844.909 41.0199 847.835 35.9524L879.551 -18.9816Z" fill="#0A1200"/>
<path d="M790.89 -70.1699L772.621 -80.7173L734.857 -15.3076C734.119 -14.0301 733.176 -12.9852 732.025 -12.1731C730.918 -11.3363 729.704 -10.7593 728.386 -10.4419C727.085 -10.0573 725.745 -9.95046 724.368 -10.1213C722.99 -10.2921 721.663 -10.7463 720.385 -11.4839C719.108 -12.2215 718.05 -13.1441 717.214 -14.2517C716.377 -15.3594 715.779 -16.585 715.419 -17.9284C715.077 -19.2046 714.991 -20.5316 715.162 -21.9092C715.333 -23.2868 715.787 -24.6144 716.524 -25.892L754.289 -91.3017L735.956 -101.886L698.192 -36.4763C697.454 -35.1988 696.532 -34.1416 695.424 -33.3049C694.316 -32.4681 693.103 -31.8911 691.784 -31.5737C690.483 -31.1891 689.144 -31.0823 687.766 -31.2531C686.389 -31.4239 685.061 -31.8781 683.784 -32.6157C682.506 -33.3532 681.449 -34.2759 680.612 -35.3835C679.776 -36.4912 679.177 -37.7167 678.817 -39.0602C678.475 -40.3364 678.39 -41.6633 678.56 -43.041C678.731 -44.4186 679.186 -45.7462 679.923 -47.0237L717.687 -112.433L699.355 -123.018L661.59 -57.6081C659.402 -53.8181 658.052 -49.8566 657.54 -45.7237C657.045 -41.5236 657.32 -37.4756 658.364 -33.5797C659.426 -29.6166 661.212 -25.9736 663.722 -22.6506C666.25 -19.2604 669.409 -16.4712 673.199 -14.2831C676.606 -12.3162 680.242 -11.0405 684.106 -10.4561C687.946 -9.82907 691.785 -9.94005 695.626 -10.789C696.81 -7.03889 698.613 -3.67024 701.033 -0.683088C703.471 2.37124 706.394 4.88184 709.801 6.84874C713.591 9.0369 717.565 10.3659 721.722 10.8358C725.898 11.3728 729.946 11.098 733.866 10.0116C737.804 8.99224 741.448 7.20617 744.795 4.65334C748.161 2.16768 750.938 -0.970153 753.126 -4.76017L790.89 -70.1699Z" fill="#0A1200"/>
<path d="M1088.42 261.233L1067.26 297.898L1085.59 308.482C1088.1 309.933 1090.73 310.829 1093.49 311.17C1096.27 311.469 1098.97 311.268 1101.59 310.566C1104.21 309.864 1106.63 308.676 1108.84 307.003C1111.12 305.311 1112.99 303.21 1114.44 300.697C1115.89 298.185 1116.77 295.538 1117.07 292.758C1117.43 289.961 1117.26 287.252 1116.56 284.632C1115.86 282.013 1114.67 279.595 1113 277.38C1111.35 275.122 1109.27 273.268 1106.76 271.817L1088.42 261.233ZM1046.12 334.499L1027.79 323.915L1080.68 232.316L1117.34 253.484C1120.71 255.427 1123.68 257.742 1126.28 260.431C1128.89 263.078 1131.08 265.985 1132.82 269.152C1134.64 272.301 1136 275.643 1136.91 279.179C1137.89 282.696 1138.38 286.272 1138.39 289.908C1138.43 293.567 1137.98 297.197 1137.04 300.798C1136.14 304.423 1134.72 307.917 1132.77 311.281C1130.95 314.433 1128.78 317.265 1126.25 319.779C1123.76 322.317 1121 324.498 1117.96 326.32C1114.96 328.167 1111.75 329.604 1108.32 330.632C1104.88 331.659 1101.37 332.241 1097.77 332.378L1094.09 362.195L1074.61 350.947L1077.29 327.877L1056.71 316.167L1046.12 334.499Z" fill="#0A1200"/>
<path d="M1014.95 316.502L952.161 280.25L1005.05 188.651L1067.84 224.903L1057.25 243.236L1012.79 217.568L1002.21 235.9L1032.3 253.271L1021.71 271.603L991.625 254.233L981.078 272.502L1025.54 298.17L1014.95 316.502Z" fill="#0A1200"/>
<path d="M928.732 169.035L907.563 205.7L925.896 216.284C928.408 217.735 931.042 218.631 933.797 218.972C936.577 219.272 939.277 219.07 941.897 218.368C944.516 217.666 946.934 216.478 949.149 214.805C951.432 213.113 953.298 211.011 954.749 208.499C956.199 205.987 957.074 203.34 957.373 200.56C957.739 197.763 957.571 195.054 956.869 192.434C956.168 189.815 954.98 187.397 953.306 185.182C951.657 182.924 949.577 181.07 947.064 179.619L928.732 169.035ZM886.431 242.301L868.099 231.717L920.983 140.118L957.649 161.286C961.013 163.229 963.991 165.544 966.583 168.233C969.2 170.88 971.383 173.787 973.132 176.954C974.947 180.103 976.311 183.445 977.222 186.981C978.201 190.498 978.691 194.074 978.693 197.71C978.738 201.369 978.289 204.999 977.346 208.6C976.445 212.225 975.024 215.719 973.081 219.083C970.18 224.108 966.481 228.303 961.983 231.668C957.509 234.991 952.653 237.354 947.414 238.758C942.175 240.162 936.766 240.531 931.188 239.866C925.653 239.225 920.373 237.454 915.348 234.553L897.016 223.969L886.431 242.301Z" fill="#0A1200"/>
<path d="M844.67 120.502L823.501 157.167L841.834 167.751C844.347 169.202 846.98 170.098 849.736 170.44C852.516 170.739 855.215 170.537 857.835 169.835C860.455 169.133 862.872 167.946 865.087 166.272C867.37 164.581 869.237 162.479 870.687 159.966C872.138 157.454 873.013 154.807 873.312 152.028C873.678 149.23 873.51 146.521 872.808 143.901C872.106 141.282 870.918 138.864 869.245 136.649C867.596 134.391 865.515 132.537 863.003 131.086L844.67 120.502ZM802.37 193.768L784.037 183.184L836.922 91.5847L873.587 112.753C876.951 114.696 879.93 117.011 882.522 119.7C885.139 122.347 887.322 125.254 889.07 128.421C890.886 131.57 892.249 134.912 893.161 138.448C894.139 141.965 894.629 145.541 894.632 149.177C894.676 152.836 894.227 156.466 893.284 160.067C892.383 163.692 890.962 167.186 889.02 170.55C886.119 175.575 882.419 179.77 877.921 183.135C873.448 186.458 868.592 188.821 863.352 190.225C858.113 191.629 852.705 191.998 847.127 191.333C841.592 190.692 836.312 188.921 831.287 186.02L812.954 175.436L802.37 193.768Z" fill="#0A1200"/>
<path d="M770.931 126.816L781.516 108.483C782.966 105.97 783.841 103.324 784.14 100.544C784.506 97.7465 784.339 95.0377 783.637 92.4181C782.935 89.7984 781.726 87.3686 780.01 85.1287C778.361 82.8708 776.28 81.0165 773.767 79.566C771.255 78.1154 768.588 77.2283 765.765 76.9047C763.01 76.563 760.322 76.7432 757.703 77.4451C755.083 78.1471 752.632 79.3438 750.349 81.0353C748.134 82.7088 746.301 84.8017 744.851 87.3142L734.266 105.647L770.931 126.816ZM768.132 174.001L749.8 163.417L760.384 145.084L723.719 123.916L713.134 142.248L694.866 131.701L726.582 76.7668C729.508 71.6992 733.207 67.5042 737.68 64.1818C742.178 60.8168 747.025 58.4201 752.222 56.9917C757.461 55.5878 762.849 55.2062 768.384 55.8469C773.962 56.5121 779.284 58.3076 784.352 61.2334C789.419 64.1591 793.614 67.8586 796.937 72.3319C800.302 76.8297 802.686 81.6983 804.09 86.9376C805.494 92.1769 805.863 97.5854 805.198 103.163C804.557 108.698 802.774 114 799.848 119.067L768.132 174.001Z" fill="#0A1200"/>
<path d="M679.471 122.813L661.202 112.265L698.967 46.8556C699.704 45.578 700.137 44.2381 700.265 42.8359C700.436 41.4583 700.329 40.119 699.945 38.8182C699.627 37.4994 699.05 36.2861 698.213 35.1785C697.377 34.0708 696.32 33.1482 695.042 32.4106C693.765 31.673 692.437 31.2188 691.059 31.048C689.682 30.8772 688.321 30.9718 686.978 31.3317C685.701 31.6737 684.51 32.2631 683.402 33.0998C682.294 33.9365 681.372 34.9937 680.634 36.2712L642.87 101.681L624.537 91.0966L662.301 25.6869C663.039 24.4094 663.493 23.0818 663.664 21.7041C663.835 20.3265 663.728 18.9872 663.343 17.6864C663.026 16.3676 662.449 15.1543 661.612 14.0467C660.775 12.939 659.718 12.0164 658.441 11.2788C657.163 10.5412 655.836 10.087 654.458 9.91621C653.08 9.7454 651.72 9.83997 650.376 10.1999C649.1 10.5419 647.908 11.1313 646.801 11.968C645.693 12.8048 644.77 13.8619 644.033 15.1394L606.268 80.5491L587.936 69.9648L625.7 4.5551C627.888 0.765085 630.644 -2.38505 633.967 -4.89529C637.357 -7.42353 641 -9.2096 644.896 -10.2535C648.859 -11.3154 652.907 -11.5901 657.04 -11.0777C661.24 -10.5833 665.235 -9.24197 669.025 -7.0538C672.432 -5.08691 675.354 -2.57631 677.793 0.478018C680.255 3.48976 682.079 6.8707 683.264 10.6208C687.104 9.77186 690.923 9.64858 694.72 10.251C698.584 10.8354 702.22 12.1111 705.626 14.078C709.416 16.2661 712.554 19.043 715.04 22.4086C717.593 25.7562 719.379 29.3992 720.398 33.3377C721.485 37.2582 721.759 41.3062 721.222 45.4817C720.752 49.6392 719.423 53.613 717.235 57.403L679.471 122.813Z" fill="#0A1200"/>
<path d="M1001.75 411.359L1022.92 374.694L1041.25 385.278C1043.76 386.729 1045.86 388.562 1047.53 390.777C1049.18 393.035 1050.35 395.474 1051.05 398.093C1051.76 400.713 1051.94 403.4 1051.6 406.156C1051.27 408.978 1050.38 411.646 1048.93 414.158C1047.48 416.671 1045.63 418.751 1043.37 420.4C1041.13 422.116 1038.7 423.325 1036.08 424.027C1033.46 424.729 1030.77 424.909 1028.02 424.568C1025.24 424.269 1022.59 423.394 1020.08 421.943L1001.75 411.359ZM1044.05 338.092L1025.72 327.508L972.832 419.107L1009.5 440.276C1012.86 442.218 1016.36 443.64 1019.98 444.54C1023.58 445.483 1027.19 445.92 1030.81 445.851C1034.44 445.849 1038.02 445.358 1041.54 444.38C1045.07 443.469 1048.41 442.105 1051.56 440.289C1054.75 438.498 1057.67 436.294 1060.32 433.677C1063.01 431.085 1065.32 428.107 1067.27 424.742C1069.09 421.591 1070.45 418.292 1071.36 414.843C1072.32 411.42 1072.82 407.937 1072.88 404.393C1072.98 400.875 1072.62 397.372 1071.8 393.886C1070.97 390.399 1069.72 387.064 1068.03 383.879L1092.02 365.789L1072.54 354.541L1053.9 368.391L1033.46 356.425L1044.05 338.092Z" fill="#0A1200"/>
<path d="M1012.88 320.095L950.087 283.843L897.202 375.442L959.993 411.694L970.577 393.362L926.119 367.694L936.703 349.361L966.789 366.731L977.374 348.399L947.288 331.028L957.835 312.76L1002.29 338.428L1012.88 320.095Z" fill="#0A1200"/>
<path d="M842.057 319.161L863.226 282.496L881.558 293.08C884.071 294.531 886.164 296.364 887.837 298.579C889.486 300.837 890.662 303.276 891.364 305.895C892.066 308.515 892.246 311.202 891.904 313.958C891.58 316.78 890.693 319.448 889.243 321.96C887.792 324.473 885.938 326.553 883.68 328.202C881.44 329.918 879.01 331.127 876.391 331.829C873.771 332.531 871.083 332.711 868.328 332.37C865.548 332.071 862.902 331.196 860.39 329.745L842.057 319.161ZM884.358 245.894L866.025 235.31L813.14 326.909L849.805 348.078C853.17 350.02 856.664 351.442 860.289 352.342C863.889 353.285 867.498 353.722 871.115 353.653C874.75 353.651 878.327 353.16 881.844 352.182C885.38 351.271 888.722 349.907 891.871 348.091C895.063 346.3 897.982 344.096 900.628 341.479C903.317 338.887 905.633 335.909 907.575 332.544C910.476 327.519 912.26 322.218 912.925 316.64C913.566 311.105 913.184 305.718 911.78 300.479C910.376 295.239 907.992 290.371 904.627 285.873C901.304 281.4 897.131 277.712 892.106 274.811L873.773 264.227L884.358 245.894Z" fill="#0A1200"/>
<path d="M757.996 270.628L779.164 233.962L797.497 244.547C800.009 245.997 802.102 247.83 803.776 250.046C805.425 252.304 806.6 254.742 807.302 257.362C808.004 259.982 808.184 262.669 807.843 265.424C807.519 268.247 806.632 270.914 805.181 273.427C803.731 275.939 801.876 278.02 799.618 279.669C797.379 281.385 794.949 282.594 792.329 283.296C789.709 283.998 787.022 284.178 784.267 283.836C781.487 283.537 778.841 282.663 776.328 281.212L757.996 270.628ZM800.296 197.361L781.963 186.777L729.079 278.376L765.744 299.545C769.108 301.487 772.603 302.908 776.228 303.809C779.828 304.752 783.437 305.189 787.054 305.12C790.689 305.117 794.265 304.627 797.783 303.649C801.318 302.737 804.66 301.374 807.809 299.558C811.001 297.767 813.92 295.563 816.567 292.946C819.256 290.354 821.572 287.375 823.514 284.011C826.415 278.986 828.198 273.685 828.863 268.107C829.504 262.572 829.122 257.185 827.719 251.945C826.315 246.706 823.93 241.838 820.565 237.34C817.243 232.866 813.069 229.179 808.044 226.278L789.712 215.694L800.296 197.361Z" fill="#0A1200"/>
<path d="M726.594 203.611L716.01 221.943C714.559 224.456 712.705 226.537 710.447 228.186C708.207 229.902 705.777 231.111 703.158 231.813C700.538 232.515 697.829 232.682 695.031 232.316C692.252 232.017 689.605 231.142 687.093 229.692C684.58 228.241 682.478 226.375 680.787 224.092C679.113 221.877 677.926 219.459 677.224 216.84C676.522 214.22 676.333 211.499 676.656 208.676C676.998 205.921 677.894 203.287 679.345 200.775L689.929 182.442L726.594 203.611ZM766.059 177.594L747.726 167.01L737.142 185.342L700.476 164.173L711.061 145.841L692.792 135.293L661.076 190.227C658.15 195.295 656.367 200.596 655.726 206.131C655.061 211.709 655.409 217.105 656.77 222.32C658.174 227.559 660.537 232.416 663.86 236.889C667.225 241.387 671.441 245.099 676.509 248.024C681.576 250.95 686.877 252.733 692.413 253.374C697.99 254.039 703.399 253.67 708.638 252.266C713.878 250.862 718.746 248.478 723.244 245.113C727.717 241.79 731.417 237.595 734.342 232.528L766.059 177.594Z" fill="#0A1200"/>
<path d="M677.397 126.406L659.129 115.858L621.364 181.268C620.627 182.545 619.683 183.59 618.533 184.402C617.425 185.239 616.212 185.816 614.893 186.134C613.592 186.518 612.253 186.625 610.875 186.454C609.497 186.283 608.17 185.829 606.892 185.092C605.615 184.354 604.558 183.431 603.721 182.324C602.884 181.216 602.286 179.99 601.926 178.647C601.584 177.371 601.498 176.044 601.669 174.666C601.84 173.289 602.294 171.961 603.032 170.683L640.796 105.274L622.463 94.6894L584.699 160.099C583.962 161.377 583.039 162.434 581.931 163.271C580.824 164.107 579.61 164.684 578.292 165.002C576.991 165.386 575.651 165.493 574.274 165.322C572.896 165.152 571.569 164.697 570.291 163.96C569.014 163.222 567.956 162.3 567.12 161.192C566.283 160.084 565.685 158.859 565.325 157.515C564.983 156.239 564.897 154.912 565.068 153.534C565.239 152.157 565.693 150.829 566.43 149.552L604.195 84.142L585.862 73.5577L548.098 138.967C545.91 142.757 544.559 146.719 544.047 150.852C543.552 155.052 543.827 159.1 544.871 162.996C545.933 166.959 547.719 170.602 550.229 173.925C552.758 177.315 555.917 180.104 559.707 182.292C563.113 184.259 566.749 185.535 570.613 186.119C574.453 186.746 578.293 186.635 582.133 185.786C583.318 189.537 585.12 192.905 587.541 195.892C589.979 198.947 592.901 201.457 596.308 203.424C600.098 205.612 604.072 206.941 608.229 207.411C612.405 207.948 616.453 207.673 620.373 206.587C624.312 205.568 627.955 203.782 631.302 201.229C634.668 198.743 637.445 195.605 639.633 191.815L677.397 126.406Z" fill="#0A1200"/>
<path d="M899.713 516.102L836.922 479.85L889.807 388.25L952.597 424.503L942.013 442.835L897.555 417.167L886.971 435.5L917.056 452.87L906.472 471.203L876.386 453.833L865.839 472.101L910.297 497.769L899.713 516.102Z" fill="#0A1200"/>
<path d="M813.493 368.634L792.324 405.299L810.657 415.884C813.169 417.334 815.803 418.23 818.558 418.572C821.338 418.871 824.038 418.67 826.658 417.968C829.277 417.266 831.695 416.078 833.91 414.405C836.193 412.713 838.059 410.611 839.51 408.099C840.96 405.586 841.835 402.94 842.134 400.16C842.501 397.362 842.333 394.653 841.631 392.034C840.929 389.414 839.741 386.997 838.068 384.781C836.419 382.523 834.338 380.669 831.825 379.219L813.493 368.634ZM771.192 441.901L752.86 431.316L805.745 339.717L842.41 360.886C845.774 362.828 848.752 365.144 851.345 367.833C853.962 370.479 856.144 373.386 857.893 376.553C859.709 379.703 861.072 383.045 861.983 386.58C862.962 390.098 863.452 393.674 863.454 397.309C863.499 400.969 863.05 404.599 862.107 408.199C861.206 411.824 859.785 415.319 857.842 418.683C854.941 423.708 851.242 427.903 846.744 431.268C842.271 434.59 837.414 436.953 832.175 438.357C826.936 439.761 821.527 440.13 815.95 439.465C810.414 438.825 805.134 437.054 800.109 434.152L781.777 423.568L771.192 441.901Z" fill="#0A1200"/>
<path d="M729.431 320.102L708.263 356.767L726.595 367.351C729.108 368.802 731.742 369.698 734.497 370.039C737.277 370.338 739.977 370.137 742.596 369.435C745.216 368.733 747.633 367.545 749.849 365.872C752.131 364.18 753.998 362.078 755.448 359.566C756.899 357.053 757.774 354.407 758.073 351.627C758.439 348.829 758.271 346.121 757.569 343.501C756.867 340.881 755.68 338.464 754.006 336.249C752.357 333.991 750.276 332.136 747.764 330.686L729.431 320.102ZM687.131 393.368L668.798 382.784L721.683 291.185L758.348 312.353C761.712 314.296 764.691 316.611 767.283 319.3C769.9 321.947 772.083 324.854 773.831 328.021C775.647 331.17 777.011 334.512 777.922 338.048C778.9 341.565 779.391 345.141 779.393 348.776C779.438 352.436 778.988 356.066 778.045 359.667C777.145 363.291 775.723 366.786 773.781 370.15C770.88 375.175 767.18 379.37 762.682 382.735C758.209 386.058 753.353 388.421 748.114 389.825C742.874 391.228 737.466 391.598 731.888 390.933C726.353 390.292 721.073 388.521 716.048 385.62L697.715 375.035L687.131 393.368Z" fill="#0A1200"/>
<path d="M655.693 326.415L666.277 308.083C667.728 305.57 668.602 302.924 668.901 300.144C669.268 297.346 669.1 294.637 668.398 292.018C667.696 289.398 666.487 286.968 664.771 284.728C663.122 282.47 661.041 280.616 658.529 279.166C656.016 277.715 653.349 276.828 650.526 276.504C647.771 276.163 645.084 276.343 642.464 277.045C639.844 277.747 637.393 278.943 635.111 280.635C632.895 282.308 631.062 284.401 629.612 286.914L619.027 305.246L655.693 326.415ZM652.893 373.601L634.561 363.016L645.145 344.684L608.48 323.515L597.896 341.848L579.627 331.3L611.343 276.366C614.269 271.299 617.968 267.104 622.442 263.781C626.939 260.416 631.787 258.02 636.983 256.591C642.223 255.187 647.61 254.806 653.145 255.446C658.723 256.112 664.046 257.907 669.113 260.833C674.181 263.759 678.376 267.458 681.698 271.931C685.063 276.429 687.447 281.298 688.851 286.537C690.255 291.777 690.624 297.185 689.959 302.763C689.319 308.298 687.535 313.599 684.61 318.667L652.893 373.601Z" fill="#0A1200"/>
<path d="M564.232 322.412L545.963 311.865L583.728 246.455C584.465 245.178 584.898 243.838 585.027 242.436C585.197 241.058 585.09 239.719 584.706 238.418C584.389 237.099 583.811 235.886 582.975 234.778C582.138 233.67 581.081 232.748 579.803 232.01C578.526 231.273 577.198 230.818 575.821 230.648C574.443 230.477 573.082 230.571 571.739 230.931C570.463 231.273 569.271 231.863 568.163 232.699C567.055 233.536 566.133 234.593 565.395 235.871L527.631 301.281L509.298 290.696L547.063 225.286C547.8 224.009 548.254 222.681 548.425 221.304C548.596 219.926 548.489 218.587 548.105 217.286C547.787 215.967 547.21 214.754 546.373 213.646C545.537 212.539 544.48 211.616 543.202 210.878C541.924 210.141 540.597 209.687 539.219 209.516C537.842 209.345 536.481 209.44 535.138 209.8C533.861 210.142 532.669 210.731 531.562 211.568C530.454 212.404 529.531 213.462 528.794 214.739L491.03 280.149L472.697 269.564L510.461 204.155C512.649 200.365 515.405 197.215 518.728 194.704C522.118 192.176 525.761 190.39 529.657 189.346C533.62 188.284 537.668 188.009 541.801 188.522C546.001 189.016 549.996 190.358 553.786 192.546C557.193 194.513 560.116 197.023 562.554 200.078C565.017 203.089 566.84 206.47 568.025 210.22C571.865 209.371 575.684 209.248 579.481 209.851C583.345 210.435 586.981 211.711 590.388 213.678C594.178 215.866 597.315 218.643 599.801 222.008C602.354 225.356 604.14 228.999 605.159 232.937C606.246 236.858 606.521 240.906 605.984 245.081C605.514 249.239 604.185 253.213 601.997 257.003L564.232 322.412Z" fill="#0A1200"/>
<path d="M642.756 470.228L663.924 433.563L682.257 444.147C684.77 445.598 686.863 447.43 688.536 449.646C690.185 451.904 691.36 454.343 692.062 456.962C692.764 459.582 692.944 462.269 692.603 465.025C692.279 467.847 691.392 470.515 689.941 473.027C688.491 475.539 686.637 477.62 684.379 479.269C682.139 480.985 679.709 482.194 677.089 482.896C674.47 483.598 671.782 483.778 669.027 483.437C666.247 483.138 663.601 482.263 661.088 480.812L642.756 470.228ZM685.056 396.961L666.724 386.377L613.839 477.976L650.504 499.145C653.868 501.087 657.363 502.508 660.988 503.409C664.588 504.352 668.197 504.789 671.814 504.72C675.449 504.718 679.025 504.227 682.543 503.249C686.078 502.337 689.421 500.974 692.57 499.158C695.761 497.367 698.681 495.163 701.327 492.546C704.016 489.954 706.332 486.975 708.274 483.611C711.175 478.586 712.958 473.285 713.624 467.707C714.264 462.172 713.883 456.785 712.479 451.546C711.075 446.306 708.691 441.438 705.326 436.94C702.003 432.467 697.829 428.779 692.805 425.878L674.472 415.294L685.056 396.961Z" fill="#0A1200"/>
<path d="M611.354 403.211L600.77 421.544C599.32 424.056 597.465 426.137 595.207 427.786C592.967 429.502 590.538 430.711 587.918 431.413C585.298 432.115 582.59 432.282 579.792 431.916C577.012 431.617 574.366 430.742 571.853 429.292C569.341 427.841 567.239 425.975 565.547 423.692C563.874 421.477 562.686 419.059 561.984 416.44C561.282 413.82 561.093 411.099 561.417 408.277C561.758 405.521 562.654 402.887 564.105 400.375L574.689 382.042L611.354 403.211ZM650.819 377.194L632.486 366.61L621.902 384.942L585.237 363.774L595.821 345.441L577.552 334.894L545.836 389.827C542.91 394.895 541.127 400.196 540.487 405.732C539.821 411.309 540.169 416.706 541.531 421.92C542.934 427.16 545.298 432.016 548.62 436.489C551.985 440.987 556.201 444.699 561.269 447.624C566.336 450.55 571.638 452.333 577.173 452.974C582.751 453.639 588.159 453.27 593.398 451.866C598.638 450.462 603.506 448.078 608.004 444.713C612.477 441.39 616.177 437.195 619.103 432.128L650.819 377.194Z" fill="#0A1200"/>
<path d="M562.158 326.006L543.889 315.458L506.125 380.868C505.387 382.145 504.443 383.19 503.293 384.002C502.185 384.839 500.972 385.416 499.653 385.734C498.352 386.118 497.013 386.225 495.635 386.054C494.258 385.883 492.93 385.429 491.653 384.692C490.375 383.954 489.318 383.031 488.481 381.924C487.644 380.816 487.046 379.591 486.686 378.247C486.344 376.971 486.259 375.644 486.429 374.266C486.6 372.889 487.054 371.561 487.792 370.284L525.556 304.874L507.224 294.29L469.459 359.699C468.722 360.977 467.799 362.034 466.692 362.871C465.584 363.707 464.371 364.284 463.052 364.602C461.751 364.986 460.412 365.093 459.034 364.922C457.656 364.752 456.329 364.297 455.051 363.56C453.774 362.822 452.717 361.9 451.88 360.792C451.043 359.684 450.445 358.459 450.085 357.115C449.743 355.839 449.657 354.512 449.828 353.135C449.999 351.757 450.453 350.429 451.191 349.152L488.955 283.742L470.622 273.158L432.858 338.567C430.67 342.357 429.32 346.319 428.807 350.452C428.313 354.652 428.587 358.7 429.631 362.596C430.693 366.559 432.479 370.202 434.99 373.525C437.518 376.915 440.677 379.704 444.467 381.892C447.874 383.859 451.509 385.135 455.373 385.719C459.213 386.346 463.053 386.235 466.893 385.387C468.078 389.137 469.881 392.505 472.301 395.492C474.739 398.547 477.662 401.057 481.068 403.024C484.858 405.212 488.832 406.541 492.99 407.011C497.165 407.548 501.213 407.274 505.134 406.187C509.072 405.168 512.715 403.382 516.063 400.829C519.428 398.343 522.205 395.205 524.393 391.415L562.158 326.006Z" fill="#0A1200"/>
</mask>
<g mask="url(#mask0_240_34)">
<rect width="1096" height="407" rx="25" fill="url(#paint1_radial_240_34)" fill-opacity="0.5"/>
<rect width="1096" height="407" rx="25" fill="black" fill-opacity="0.08"/>
</g>
</g>
<defs>
<radialGradient id="paint0_radial_240_34" cx="0" cy="0" r="1" gradientUnits="userSpaceOnUse" gradientTransform="translate(339.123 102.23) rotate(90.7122) scale(271.674 731.584)">
<stop stop-color="#589977"/>
<stop offset="1" stop-color="#89C587"/>
</radialGradient>
<radialGradient id="paint1_radial_240_34" cx="0" cy="0" r="1" gradientUnits="userSpaceOnUse" gradientTransform="translate(339.123 102.23) rotate(90.7122) scale(271.674 731.584)">
<stop stop-color="#589977"/>
<stop offset="1" stop-color="#89C587"/>
</radialGradient>
<clipPath id="clip0_240_34">
<rect width="1136" height="428" fill="white"/>
</clipPath>
</defs>
</svg>
