<svg width="30" height="30" viewBox="0 0 30 30" fill="none" xmlns="http://www.w3.org/2000/svg">
<g clip-path="url(#clip0_382_248)">
<g clip-path="url(#clip1_382_248)">
<g clip-path="url(#clip2_382_248)">
<path d="M12.5 19C10.6833 19 9.146 18.3707 7.888 17.112C6.63 15.8533 6.00067 14.316 6 12.5C5.99933 10.684 6.62867 9.14667 7.888 7.888C9.14733 6.62933 10.6847 6 12.5 6C14.3153 6 15.853 6.62933 17.113 7.888C18.373 9.14667 19.002 10.684 19 12.5C19 13.2333 18.8833 13.925 18.65 14.575C18.4167 15.225 18.1 15.8 17.7 16.3L23.3 21.9C23.4833 22.0833 23.575 22.3167 23.575 22.6C23.575 22.8833 23.4833 23.1167 23.3 23.3C23.1167 23.4833 22.8833 23.575 22.6 23.575C22.3167 23.575 22.0833 23.4833 21.9 23.3L16.3 17.7C15.8 18.1 15.225 18.4167 14.575 18.65C13.925 18.8833 13.2333 19 12.5 19ZM12.5 17C13.75 17 14.8127 16.5627 15.688 15.688C16.5633 14.8133 17.0007 13.7507 17 12.5C16.9993 11.2493 16.562 10.187 15.688 9.313C14.814 8.439 13.7513 8.00133 12.5 8C11.2487 7.99867 10.1863 8.43633 9.313 9.313C8.43967 10.1897 8.002 11.252 8 12.5C7.998 13.748 8.43567 14.8107 9.313 15.688C10.1903 16.5653 11.2527 17.0027 12.5 17Z" fill="black"/>
</g>
</g>
</g>
<defs>
<clipPath id="clip0_382_248">
<rect width="24" height="24" fill="white" transform="translate(3 3)"/>
</clipPath>
<clipPath id="clip1_382_248">
<rect width="24" height="24" fill="white" transform="translate(3 3)"/>
</clipPath>
<clipPath id="clip2_382_248">
<rect width="24" height="24" fill="white" transform="translate(3 3)"/>
</clipPath>
</defs>
</svg>
