<svg viewBox="0 0 25 17" fill="none" xmlns="http://www.w3.org/2000/svg">
<path d="M12.375 5.125C13.2701 5.125 14.1286 5.48058 14.7615 6.11351C15.3944 6.74645 15.75 7.60489 15.75 8.5C15.75 9.39511 15.3944 10.2536 14.7615 10.8865C14.1286 11.5194 13.2701 11.875 12.375 11.875C11.4799 11.875 10.6214 11.5194 9.98851 10.8865C9.35558 10.2536 9 9.39511 9 8.5C9 7.60489 9.35558 6.74645 9.98851 6.11351C10.6214 5.48058 11.4799 5.125 12.375 5.125ZM12.375 0.0625C18 0.0625 22.8037 3.56125 24.75 8.5C22.8037 13.4387 18 16.9375 12.375 16.9375C6.75 16.9375 1.94625 13.4387 0 8.5C1.94625 3.56125 6.75 0.0625 12.375 0.0625ZM2.4525 8.5C3.36179 10.3566 4.77372 11.9208 6.52779 13.0149C8.28186 14.109 10.3077 14.689 12.375 14.689C14.4423 14.689 16.4681 14.109 18.2222 13.0149C19.9763 11.9208 21.3882 10.3566 22.2975 8.5C21.3882 6.6434 19.9763 5.07916 18.2222 3.98509C16.4681 2.89102 14.4423 2.31102 12.375 2.31102C10.3077 2.31102 8.28186 2.89102 6.52779 3.98509C4.77372 5.07916 3.36179 6.6434 2.4525 8.5Z" fill="#A3A3A3"/>
</svg>
